<svg width="16" height="16" viewBox="0 0 16 16" fill="none" xmlns="http://www.w3.org/2000/svg">
<path d="M10.3332 8C10.3332 8.30642 10.2728 8.60984 10.1556 8.89293C10.0383 9.17602 9.86642 9.43325 9.64975 9.64992C9.43308 9.86659 9.17586 10.0385 8.89276 10.1557C8.60967 10.273 8.30625 10.3333 7.99984 10.3333C7.69342 10.3333 7.39 10.273 7.10691 10.1557C6.82382 10.0385 6.56659 9.86659 6.34992 9.64992C6.13325 9.43325 5.96138 9.17602 5.84412 8.89293C5.72686 8.60984 5.6665 8.30642 5.6665 8C5.6665 7.38116 5.91234 6.78767 6.34992 6.35009C6.78751 5.9125 7.381 5.66667 7.99984 5.66667C8.61868 5.66667 9.21217 5.9125 9.64975 6.35009C10.0873 6.78767 10.3332 7.38116 10.3332 8Z" fill="#051D35"/>
<path d="M8.00016 2.33333C10.2882 2.33333 12.0828 3.356 13.3695 4.494C14.6535 5.62933 15.4575 6.90067 15.7802 7.46733C15.8735 7.62933 15.9227 7.81302 15.9227 8C15.9227 8.18698 15.8735 8.37067 15.7802 8.53267C15.4575 9.09933 14.6535 10.3707 13.3695 11.5067C12.0835 12.644 10.2882 13.6667 8.00016 13.6667C5.71216 13.6667 3.91749 12.644 2.63082 11.5067C1.34683 10.372 0.542825 9.1 0.220158 8.53333C0.126786 8.37134 0.0776367 8.18764 0.0776367 8.00067C0.0776367 7.81369 0.126786 7.62999 0.220158 7.468C0.542825 6.90133 1.34683 5.63 2.63082 4.49333C3.91682 3.356 5.71216 2.33333 8.00016 2.33333ZM1.08882 7.96333C1.08153 7.97418 1.07759 7.98693 1.07749 8C1.07794 8.01333 1.08171 8.02578 1.08882 8.03733C1.38283 8.55333 2.12282 9.722 3.29349 10.7573C4.46082 11.79 6.03016 12.6667 8.00016 12.6667C9.97016 12.6667 11.5402 11.79 12.7068 10.7573C13.8775 9.722 14.6175 8.55333 14.9115 8.03733C14.9189 8.0263 14.9229 8.0133 14.9228 8C14.9229 7.9867 14.9189 7.9737 14.9115 7.96267C14.6175 7.44733 13.8775 6.278 12.7068 5.24267C11.5395 4.21 9.97016 3.33333 8.00016 3.33333C6.03016 3.33333 4.46016 4.20933 3.29349 5.24333C2.12282 6.278 1.38283 7.44733 1.08882 7.96333Z" fill="#051D35"/>
</svg>
