<svg xmlns="http://www.w3.org/2000/svg" width="24" height="24" viewBox="0 0 24 24" fill="none">
<path d="M17 2L7 2C4.23858 2 2 4.23858 2 7L2 17C2 19.7614 4.23857 22 7 22L17 22C19.7614 22 22 19.7614 22 17L22 7C22 4.23858 19.7614 2 17 2Z" stroke="currentColor" stroke-width="1.5" stroke-linecap="round" stroke-linejoin="round"/>
<path d="M16 11.3703C16.1234 12.2025 15.9812 13.0525 15.5937 13.7993C15.2062 14.5461 14.5931 15.1517 13.8416 15.53C13.0901 15.9082 12.2384 16.0399 11.4077 15.9062C10.5771 15.7726 9.80971 15.3804 9.21479 14.7855C8.61987 14.1905 8.22768 13.4232 8.09402 12.5925C7.96035 11.7619 8.09202 10.9102 8.47028 10.1587C8.84854 9.40716 9.45414 8.79404 10.2009 8.40654C10.9477 8.01904 11.7977 7.87689 12.63 8.0003C13.4789 8.12619 14.2648 8.52177 14.8716 9.12861C15.4785 9.73545 15.8741 10.5214 16 11.3703Z" stroke="currentColor" stroke-width="1.5" stroke-linecap="round" stroke-linejoin="round"/>
<path d="M17.5 6.5L17.51 6.5" stroke="currentColor" stroke-width="1.5" stroke-linecap="round" stroke-linejoin="round"/>
</svg>