<svg width="40" height="40" viewBox="0 0 40 40" fill="none" xmlns="http://www.w3.org/2000/svg">
<g id="vscode-icons:file-type-pdf2">
<path id="Vector" d="M30.1239 2.59L37.0789 9.84V37.41H11.0977V37.5H37.1677V9.93125L30.1239 2.59Z" fill="#909090"/>
<path id="Vector_2" d="M30.0405 2.5H11.0117V37.41H37.0817V9.84125L30.0405 2.5Z" fill="#F4F4F4"/>
<path id="Vector_3" d="M10.8195 4.375H2.83203V12.9087H27.957V4.375H10.8195Z" fill="#7A7B7C"/>
<path id="Vector_4" d="M28.0884 12.7638H2.99219V4.22375H28.0884V12.7638Z" fill="#DD2025"/>
<path id="Vector_5" d="M11.3134 5.66751H9.67969V11.6675H10.9647V9.64376L11.2484 9.66001C11.5242 9.65621 11.7975 9.60679 12.0572 9.51376C12.2855 9.43625 12.4953 9.31241 12.6734 9.15001C12.8561 8.99681 12.9997 8.80227 13.0922 8.58251C13.2187 8.2184 13.2636 7.83089 13.2234 7.44751C13.2163 7.17357 13.1683 6.90224 13.0809 6.64251C13.0022 6.45477 12.8852 6.28553 12.7373 6.14562C12.5894 6.00571 12.414 5.89821 12.2222 5.83001C12.0568 5.76876 11.8855 5.72519 11.7109 5.70001C11.5791 5.67854 11.4458 5.66767 11.3122 5.66751M11.0759 8.53501H10.9647V6.68501H11.2059C11.3124 6.67733 11.4193 6.69367 11.5186 6.73283C11.6179 6.772 11.7071 6.83297 11.7797 6.91126C11.9301 7.11252 12.0104 7.35751 12.0084 7.60876C12.0084 7.91626 12.0084 8.19501 11.7309 8.39126C11.5311 8.50135 11.3035 8.55211 11.0759 8.53501ZM15.6647 5.65126C15.5259 5.65126 15.3909 5.66126 15.2959 5.66501L14.9984 5.67251H14.0234V11.6725H15.1709C15.6094 11.6838 16.0459 11.6095 16.4559 11.4538C16.7861 11.3234 17.0783 11.1124 17.3059 10.84C17.529 10.5664 17.6883 10.2466 17.7722 9.90376C17.8708 9.51616 17.9187 9.11742 17.9147 8.71751C17.9392 8.2452 17.9026 7.77171 17.8059 7.30876C17.7134 6.96837 17.5421 6.65451 17.3059 6.39251C17.1207 6.18064 16.8928 6.01026 16.6372 5.89251C16.4182 5.79101 16.1878 5.7163 15.9509 5.67001C15.8567 5.65457 15.7614 5.64746 15.6659 5.64876M15.4384 10.57H15.3134V6.74001H15.3297C15.5874 6.71021 15.8482 6.75671 16.0797 6.87376C16.2493 7.00916 16.3874 7.17976 16.4847 7.37376C16.5896 7.57793 16.6501 7.80201 16.6622 8.03126C16.6734 8.30626 16.6622 8.53126 16.6622 8.71751C16.6668 8.93204 16.653 9.14658 16.6209 9.35876C16.5816 9.57634 16.5104 9.78693 16.4097 9.98376C16.2959 10.1673 16.1404 10.3215 15.9559 10.4338C15.8018 10.5338 15.6191 10.5803 15.4359 10.5663M21.7859 5.67251H18.7484V11.6725H20.0334V9.29251H21.6584V8.17751H20.0334V6.78751H21.7834V5.67251" fill="#464648"/>
<path id="Vector_6" d="M27.2249 25.3187C27.2249 25.3187 31.2099 24.5962 31.2099 25.9575C31.2099 27.3187 28.7411 26.765 27.2249 25.3187ZM24.2786 25.4225C23.6454 25.562 23.0283 25.7669 22.4374 26.0337L22.9374 24.9087C23.4374 23.7837 23.9561 22.25 23.9561 22.25C24.5513 23.2551 25.2456 24.1982 26.0286 25.065C25.4391 25.1528 24.8549 25.273 24.2786 25.425V25.4225ZM22.7011 17.2975C22.7011 16.1112 23.0849 15.7875 23.3836 15.7875C23.6824 15.7875 24.0186 15.9312 24.0299 16.9612C23.9324 17.9969 23.7156 19.0179 23.3836 20.0037C22.9274 19.1766 22.6919 18.2459 22.6999 17.3012L22.7011 17.2975ZM16.8899 30.4425C15.6674 29.7112 19.4536 27.46 20.1399 27.3875C20.1361 27.3887 18.1699 31.2075 16.8899 30.4425ZM32.3736 26.1187C32.3611 25.9937 32.2486 24.61 29.7861 24.6687C28.7597 24.6508 27.7337 24.7231 26.7199 24.885C25.7372 23.8959 24.8914 22.7798 24.2049 21.5662C24.6371 20.3154 24.8991 19.012 24.9836 17.6912C24.9474 16.1912 24.5886 15.3312 23.4386 15.3437C22.2886 15.3562 22.1211 16.3625 22.2724 17.86C22.4204 18.8663 22.6999 19.8489 23.1036 20.7825C23.1036 20.7825 22.5724 22.4362 21.8699 24.0812C21.1674 25.7262 20.6874 26.5887 20.6874 26.5887C19.4656 26.986 18.3156 27.5768 17.2811 28.3387C16.2511 29.2975 15.8324 30.0337 16.3749 30.77C16.8424 31.405 18.4786 31.5487 19.9411 29.6325C20.7169 28.6418 21.4267 27.6012 22.0661 26.5175C22.0661 26.5175 24.2961 25.9062 24.9899 25.7387C25.6836 25.5712 26.5224 25.4387 26.5224 25.4387C26.5224 25.4387 28.5586 27.4875 30.5224 27.415C32.4861 27.3425 32.3911 26.2412 32.3786 26.1212" fill="#DD2025"/>
<path id="Vector_7" d="M29.9414 2.59625V9.9375H36.9827L29.9414 2.59625Z" fill="#909090"/>
<path id="Vector_8" d="M30.0391 2.5V9.84125H37.0803L30.0391 2.5Z" fill="#F4F4F4"/>
<path id="Vector_9" d="M11.2197 5.57125H9.58594V11.5713H10.8759V9.54875L11.1609 9.565C11.4367 9.5612 11.71 9.51179 11.9697 9.41875C12.198 9.34124 12.4078 9.21741 12.5859 9.055C12.7673 8.90138 12.9095 8.70688 13.0009 8.4875C13.1275 8.1234 13.1723 7.73588 13.1322 7.3525C13.1251 7.07857 13.077 6.80724 12.9897 6.5475C12.911 6.35976 12.7939 6.19053 12.6461 6.05062C12.4982 5.91071 12.3227 5.80321 12.1309 5.735C11.9648 5.67316 11.7926 5.62917 11.6172 5.60375C11.4854 5.58229 11.352 5.57142 11.2184 5.57125M10.9822 8.43875H10.8709V6.58875H11.1134C11.2199 6.58108 11.3268 6.59742 11.4261 6.63658C11.5254 6.67574 11.6146 6.73672 11.6872 6.815C11.8376 7.01627 11.9179 7.26126 11.9159 7.5125C11.9159 7.82 11.9159 8.09875 11.6384 8.295C11.4386 8.4051 11.211 8.45461 10.9834 8.4375M15.5709 5.555C15.4322 5.555 15.2972 5.565 15.2022 5.56875L14.9084 5.57625H13.9334V11.5763H15.0809C15.5194 11.5875 15.9559 11.5132 16.3659 11.3575C16.6961 11.2271 16.9883 11.0161 17.2159 10.7438C17.439 10.4702 17.5983 10.1504 17.6822 9.8075C17.7808 9.41991 17.8287 9.02117 17.8247 8.62125C17.8492 8.14895 17.8126 7.67546 17.7159 7.2125C17.6234 6.87212 17.4521 6.55825 17.2159 6.29625C17.0307 6.08439 16.8028 5.91401 16.5472 5.79625C16.3282 5.69475 16.0978 5.62005 15.8609 5.57375C15.7667 5.55831 15.6714 5.5512 15.5759 5.5525M15.3484 10.4738H15.2234V6.64375H15.2397C15.4974 6.61396 15.7582 6.66046 15.9897 6.7775C16.1593 6.91291 16.2974 7.0835 16.3947 7.2775C16.4996 7.48167 16.5601 7.70576 16.5722 7.935C16.5834 8.21 16.5722 8.435 16.5722 8.62125C16.5768 8.83579 16.563 9.05033 16.5309 9.2625C16.4916 9.48008 16.4204 9.69068 16.3197 9.8875C16.2059 10.0711 16.0504 10.2252 15.8659 10.3375C15.7118 10.4375 15.5291 10.4841 15.3459 10.47M21.6922 5.57625H18.6547V11.5763H19.9397V9.19625H21.5647V8.08125H19.9397V6.69125H21.6897V5.57625" fill="white"/>
</g>
</svg>
