<svg width="16" height="16" viewBox="0 0 16 16" fill="none" xmlns="http://www.w3.org/2000/svg">
<g id="icons" clip-path="url(#clip0_2117_7498)">
<path id="Vector" d="M14.665 11.28V13.28C14.6657 13.4657 14.6277 13.6494 14.5533 13.8195C14.479 13.9897 14.3699 14.1424 14.233 14.2679C14.0962 14.3934 13.9347 14.489 13.7588 14.5485C13.5829 14.6079 13.3966 14.63 13.2117 14.6133C11.1602 14.3904 9.18966 13.6894 7.45833 12.5667C5.84755 11.5431 4.48189 10.1774 3.45833 8.56665C2.33165 6.82745 1.63049 4.84731 1.41166 2.78665C1.395 2.60229 1.41691 2.41649 1.47599 2.24107C1.53508 2.06564 1.63004 1.90444 1.75484 1.76773C1.87964 1.63102 2.03153 1.52179 2.20086 1.447C2.37018 1.37221 2.55322 1.33349 2.73833 1.33332H4.73833C5.06187 1.33013 5.37552 1.4447 5.62084 1.65567C5.86615 1.86664 6.02638 2.15961 6.07166 2.47998C6.15608 3.12003 6.31263 3.74847 6.53833 4.35332C6.62802 4.59193 6.64744 4.85126 6.59427 5.10057C6.5411 5.34988 6.41757 5.57872 6.23833 5.75998L5.39166 6.60665C6.3407 8.27568 7.72263 9.65761 9.39166 10.6067L10.2383 9.75998C10.4196 9.58074 10.6484 9.45722 10.8977 9.40405C11.1471 9.35088 11.4064 9.37029 11.645 9.45998C12.2498 9.68568 12.8783 9.84224 13.5183 9.92665C13.8422 9.97234 14.1379 10.1355 14.3494 10.385C14.5608 10.6345 14.6731 10.953 14.665 11.28Z" stroke="currentColor" stroke-width="1.5" stroke-linecap="round" stroke-linejoin="round"/>
</g>
<defs>
<clipPath id="clip0_2117_7498">
<rect width="16" height="16" fill="white"/>
</clipPath>
</defs>
</svg>
