<svg width="91" height="64" viewBox="0 0 91 64" fill="none" xmlns="http://www.w3.org/2000/svg">
<g id="logos:youtube-icon" clip-path="url(#clip0_1972_14321)">
<path id="Vector" d="M88.9902 9.98222C88.4683 8.05282 87.4501 6.29385 86.0371 4.88046C84.6241 3.46707 82.8657 2.44857 80.9367 1.9264C73.875 0 45.4539 0 45.4539 0C45.4539 0 17.0313 0.058311 9.96954 1.98471C8.04059 2.50692 6.28207 3.52546 4.86908 4.93892C3.45609 6.35237 2.43795 8.11142 1.91604 10.0409C-0.219967 22.5913 -1.04856 41.7152 1.9747 53.7636C2.49666 55.693 3.51482 57.4519 4.92781 58.8653C6.34079 60.2787 8.09929 61.2972 10.0282 61.8194C17.0899 63.7458 45.5118 63.7458 45.5118 63.7458C45.5118 63.7458 73.9333 63.7458 80.9947 61.8194C82.9237 61.2973 84.6822 60.2788 86.0953 58.8654C87.5083 57.452 88.5265 55.693 89.0485 53.7636C91.3015 41.1954 91.9957 22.0832 88.9902 9.98222Z" fill="currentColor"/>
<path id="Vector_2" d="M36.4075 45.5324L59.985 31.8726L36.4075 18.2129V45.5324Z" fill="white"/>
</g>
<defs>
<clipPath id="clip0_1972_14321">
<rect width="91" height="64" fill="white"/>
</clipPath>
</defs>
</svg>
